<svg xmlns="http://www.w3.org/2000/svg" xmlns:xlink="http://www.w3.org/1999/xlink" version="1.1" class="marks" width="678" height="505" viewBox="0 0 678 505"><rect width="678" height="505" fill="white"/><g fill="none" stroke-miterlimit="10" transform="translate(179,22)"><g class="mark-group role-frame root" role="graphics-object" aria-roledescription="group mark container"><g transform="translate(0,0)"><path class="background" aria-hidden="true" d="M0.5,0.5h400v320h-400Z" stroke="#ddd"/><g><g class="mark-rect role-mark marks" role="graphics-symbol" aria-roledescription="rect mark container"><path d="M200,0h20v20h-20Z" fill="rgb(253, 81, 60)"/><path d="M140,0h20v20h-20Z" fill="rgb(255, 125, 105)"/><path d="M240,20h20v20h-20Z" fill="rgb(250, 66, 46)"/><path d="M100,20h20v20h-20Z" fill="rgb(255, 153, 137)"/><path d="M240,0h20v20h-20Z" fill="rgb(250, 64, 43)"/><path d="M300,40h20v20h-20Z" fill="rgb(247, 46, 24)"/><path d="M300,20h20v20h-20Z" fill="rgb(250, 64, 44)"/><path d="M320,60h20v20h-20Z" fill="rgb(255, 212, 207)"/><path d="M320,0h20v20h-20Z" fill="rgb(173, 20, 3)"/><path d="M320,80h20v20h-20Z" fill="rgb(255, 158, 143)"/><path d="M340,0h20v20h-20Z" fill="rgb(188, 22, 4)"/><path d="M340,20h20v20h-20Z" fill="rgb(187, 22, 4)"/><path d="M180,100h20v20h-20Z" fill="rgb(255, 172, 159)"/><path d="M180,0h20v20h-20Z" fill="rgb(250, 63, 43)"/><path d="M0,120h20v20h-20Z" fill="rgb(255, 123, 102)"/><path d="M60,140h20v20h-20Z" fill="rgb(254, 214, 209)"/><path d="M160,0h20v20h-20Z" fill="rgb(255, 175, 163)"/><path d="M160,20h20v20h-20Z" fill="rgb(249, 54, 33)"/><path d="M280,80h20v20h-20Z" fill="rgb(255, 165, 150)"/><path d="M280,40h20v20h-20Z" fill="rgb(255, 152, 135)"/><path d="M280,20h20v20h-20Z" fill="rgb(246, 36, 13)"/><path d="M200,160h20v20h-20Z" fill="rgb(255, 143, 125)"/><path d="M220,0h20v20h-20Z" fill="rgb(255, 146, 128)"/><path d="M380,20h20v20h-20Z" fill="rgb(198, 23, 4)"/><path d="M380,40h20v20h-20Z" fill="rgb(251, 67, 47)"/><path d="M380,60h20v20h-20Z" fill="rgb(255, 201, 193)"/><path d="M380,140h20v20h-20Z" fill="rgb(251, 69, 49)"/><path d="M380,180h20v20h-20Z" fill="rgb(250, 60, 39)"/><path d="M260,80h20v20h-20Z" fill="rgb(255, 166, 152)"/><path d="M260,20h20v20h-20Z" fill="rgb(255, 148, 131)"/><path d="M80,0h20v20h-20Z" fill="rgb(255, 170, 157)"/><path d="M20,100h20v20h-20Z" fill="rgb(255, 125, 105)"/><path d="M260,0h20v20h-20Z" fill="rgb(255, 104, 83)"/><path d="M20,80h20v20h-20Z" fill="rgb(255, 207, 201)"/><path d="M260,100h20v20h-20Z" fill="rgb(248, 52, 30)"/><path d="M80,160h20v20h-20Z" fill="rgb(255, 208, 201)"/><path d="M180,160h20v20h-20Z" fill="rgb(255, 177, 165)"/><path d="M220,60h20v20h-20Z" fill="rgb(255, 198, 190)"/><path d="M180,20h20v20h-20Z" fill="rgb(255, 126, 106)"/><path d="M220,200h20v20h-20Z" fill="rgb(255, 208, 202)"/><path d="M300,60h20v20h-20Z" fill="rgb(255, 178, 166)"/><path d="M240,160h20v20h-20Z" fill="rgb(255, 135, 117)"/><path d="M160,40h20v20h-20Z" fill="rgb(255, 200, 193)"/><path d="M300,120h20v20h-20Z" fill="rgb(255, 197, 189)"/><path d="M300,140h20v20h-20Z" fill="rgb(255, 195, 186)"/><path d="M160,180h20v20h-20Z" fill="rgb(255, 202, 195)"/><path d="M380,120h20v20h-20Z" fill="rgb(251, 70, 50)"/><path d="M120,40h20v20h-20Z" fill="rgb(255, 179, 167)"/><path d="M120,20h20v20h-20Z" fill="rgb(255, 128, 108)"/><path d="M200,80h20v20h-20Z" fill="rgb(255, 135, 116)"/><path d="M160,140h20v20h-20Z" fill="rgb(255, 168, 154)"/><path d="M220,140h20v20h-20Z" fill="rgb(255, 174, 161)"/><path d="M140,20h20v20h-20Z" fill="rgb(254, 89, 67)"/><path d="M40,100h20v20h-20Z" fill="rgb(255, 149, 132)"/><path d="M380,80h20v20h-20Z" fill="rgb(250, 65, 45)"/><path d="M360,20h20v20h-20Z" fill="rgb(242, 29, 5)"/><path d="M360,140h20v20h-20Z" fill="rgb(255, 118, 97)"/><path d="M360,180h20v20h-20Z" fill="rgb(193, 23, 4)"/><path d="M360,160h20v20h-20Z" fill="rgb(252, 73, 53)"/><path d="M360,40h20v20h-20Z" fill="rgb(255, 118, 98)"/><path d="M300,80h20v20h-20Z" fill="rgb(255, 200, 192)"/><path d="M320,20h20v20h-20Z" fill="rgb(250, 63, 42)"/><path d="M60,20h20v20h-20Z" fill="rgb(255, 107, 86)"/><path d="M120,140h20v20h-20Z" fill="rgb(255, 197, 189)"/><path d="M220,80h20v20h-20Z" fill="rgb(255, 195, 187)"/><path d="M20,200h20v20h-20Z" fill="rgb(255, 164, 150)"/><path d="M20,0h20v20h-20Z" fill="rgb(255, 183, 171)"/><path d="M260,200h20v20h-20Z" fill="rgb(255, 135, 116)"/><path d="M200,20h20v20h-20Z" fill="rgb(251, 69, 49)"/><path d="M200,100h20v20h-20Z" fill="rgb(255, 200, 192)"/><path d="M280,180h20v20h-20Z" fill="rgb(255, 143, 125)"/><path d="M220,180h20v20h-20Z" fill="rgb(255, 132, 113)"/><path d="M140,100h20v20h-20Z" fill="rgb(255, 190, 181)"/><path d="M140,200h20v20h-20Z" fill="rgb(255, 202, 195)"/><path d="M100,0h20v20h-20Z" fill="rgb(255, 138, 120)"/><path d="M100,180h20v20h-20Z" fill="rgb(255, 210, 204)"/><path d="M240,80h20v20h-20Z" fill="rgb(255, 187, 177)"/><path d="M300,160h20v20h-20Z" fill="rgb(255, 211, 206)"/><path d="M320,220h20v20h-20Z" fill="rgb(255, 212, 207)"/><path d="M320,160h20v20h-20Z" fill="rgb(255, 190, 181)"/><path d="M340,100h20v20h-20Z" fill="rgb(255, 179, 168)"/><path d="M180,80h20v20h-20Z" fill="rgb(255, 192, 182)"/><path d="M40,0h20v20h-20Z" fill="rgb(255, 174, 162)"/><path d="M280,0h20v20h-20Z" fill="rgb(255, 124, 104)"/><path d="M380,0h20v20h-20Z" fill="rgb(250, 63, 42)"/><path d="M260,60h20v20h-20Z" fill="rgb(255, 160, 145)"/><path d="M80,20h20v20h-20Z" fill="rgb(255, 124, 104)"/><path d="M120,0h20v20h-20Z" fill="rgb(255, 147, 130)"/><path d="M280,240h20v20h-20Z" fill="rgb(255, 206, 199)"/><path d="M40,20h20v20h-20Z" fill="rgb(255, 188, 178)"/><path d="M100,40h20v20h-20Z" fill="rgb(255, 197, 189)"/><path d="M80,140h20v20h-20Z" fill="rgb(255, 193, 184)"/><path d="M380,240h20v20h-20Z" fill="rgb(255, 207, 201)"/><path d="M60,120h20v20h-20Z" fill="rgb(255, 206, 199)"/><path d="M60,0h20v20h-20Z" fill="rgb(255, 159, 144)"/><path d="M80,120h20v20h-20Z" fill="rgb(255, 208, 201)"/><path d="M220,20h20v20h-20Z" fill="rgb(252, 76, 56)"/><path d="M360,0h20v20h-20Z" fill="rgb(251, 70, 50)"/><path d="M360,260h20v20h-20Z" fill="rgb(255, 207, 201)"/><path d="M40,120h20v20h-20Z" fill="rgb(255, 212, 206)"/><path d="M140,60h20v20h-20Z" fill="rgb(255, 212, 207)"/><path d="M100,60h20v20h-20Z" fill="rgb(255, 208, 202)"/><path d="M100,140h20v20h-20Z" fill="rgb(255, 194, 185)"/><path d="M240,100h20v20h-20Z" fill="rgb(255, 183, 172)"/><path d="M300,260h20v20h-20Z" fill="rgb(255, 204, 197)"/><path d="M300,180h20v20h-20Z" fill="rgb(251, 70, 50)"/><path d="M60,180h20v20h-20Z" fill="rgb(255, 213, 208)"/><path d="M80,100h20v20h-20Z" fill="rgb(255, 188, 178)"/><path d="M320,200h20v20h-20Z" fill="rgb(255, 184, 173)"/><path d="M60,160h20v20h-20Z" fill="rgb(255, 207, 201)"/><path d="M120,240h20v20h-20Z" fill="rgb(254, 214, 209)"/><path d="M80,260h20v20h-20Z" fill="rgb(255, 203, 195)"/><path d="M220,40h20v20h-20Z" fill="rgb(255, 154, 138)"/><path d="M260,180h20v20h-20Z" fill="rgb(254, 215, 210)"/><path d="M140,120h20v20h-20Z" fill="rgb(255, 209, 203)"/><path d="M220,160h20v20h-20Z" fill="rgb(255, 195, 186)"/><path d="M120,160h20v20h-20Z" fill="rgb(255, 202, 194)"/><path d="M160,80h20v20h-20Z" fill="rgb(255, 211, 206)"/><path d="M100,120h20v20h-20Z" fill="rgb(255, 208, 202)"/><path d="M0,80h20v20h-20Z" fill="rgb(255, 196, 188)"/><path d="M60,200h20v20h-20Z" fill="rgb(255, 209, 203)"/><path d="M220,120h20v20h-20Z" fill="rgb(255, 206, 199)"/><path d="M80,200h20v20h-20Z" fill="rgb(255, 189, 179)"/><path d="M260,140h20v20h-20Z" fill="rgb(255, 200, 192)"/><path d="M260,160h20v20h-20Z" fill="rgb(255, 207, 201)"/><path d="M260,120h20v20h-20Z" fill="rgb(255, 200, 193)"/><path d="M20,20h20v20h-20Z" fill="rgb(255, 209, 203)"/><path d="M300,0h20v20h-20Z" fill="rgb(255, 165, 151)"/><path d="M360,120h20v20h-20Z" fill="rgb(255, 185, 175)"/><path d="M360,100h20v20h-20Z" fill="rgb(255, 212, 207)"/><path d="M0,20h20v20h-20Z" fill="rgb(255, 203, 196)"/><path d="M120,80h20v20h-20Z" fill="rgb(255, 176, 163)"/><path d="M100,80h20v20h-20Z" fill="rgb(255, 180, 169)"/><path d="M240,140h20v20h-20Z" fill="rgb(255, 205, 198)"/><path d="M120,200h20v20h-20Z" fill="rgb(254, 213, 208)"/><path d="M320,100h20v20h-20Z" fill="rgb(255, 168, 154)"/><path d="M340,200h20v20h-20Z" fill="rgb(255, 180, 169)"/><path d="M180,200h20v20h-20Z" fill="rgb(255, 188, 178)"/><path d="M280,160h20v20h-20Z" fill="rgb(255, 192, 183)"/><path d="M80,80h20v20h-20Z" fill="rgb(255, 210, 204)"/><path d="M380,160h20v20h-20Z" fill="rgb(255, 173, 160)"/><path d="M40,80h20v20h-20Z" fill="rgb(255, 204, 198)"/><path d="M140,160h20v20h-20Z" fill="rgb(255, 201, 193)"/><path d="M140,180h20v20h-20Z" fill="rgb(255, 210, 204)"/><path d="M340,160h20v20h-20Z" fill="rgb(255, 207, 201)"/><path d="M60,80h20v20h-20Z" fill="rgb(255, 211, 205)"/><path d="M40,200h20v20h-20Z" fill="rgb(255, 180, 168)"/><path d="M200,60h20v20h-20Z" fill="rgb(255, 211, 205)"/><path d="M240,220h20v20h-20Z" fill="rgb(255, 213, 208)"/><path d="M0,100h20v20h-20Z" fill="rgb(255, 197, 189)"/><path d="M280,280h20v20h-20Z" fill="rgb(255, 210, 204)"/><path d="M200,220h20v20h-20Z" fill="rgb(255, 212, 206)"/><path d="M320,120h20v20h-20Z" fill="rgb(255, 185, 174)"/><path d="M280,60h20v20h-20Z" fill="rgb(255, 210, 204)"/><path d="M100,160h20v20h-20Z" fill="rgb(255, 193, 183)"/><path d="M60,40h20v20h-20Z" fill="rgb(255, 212, 206)"/><path d="M160,60h20v20h-20Z" fill="rgb(255, 209, 203)"/><path d="M160,160h20v20h-20Z" fill="rgb(255, 209, 203)"/><path d="M220,100h20v20h-20Z" fill="rgb(254, 213, 208)"/><path d="M260,260h20v20h-20Z" fill="rgb(255, 213, 207)"/><path d="M240,180h20v20h-20Z" fill="rgb(254, 213, 208)"/><path d="M280,220h20v20h-20Z" fill="rgb(255, 196, 188)"/><path d="M160,260h20v20h-20Z" fill="rgb(255, 203, 196)"/><path d="M360,60h20v20h-20Z" fill="rgb(255, 206, 200)"/><path d="M20,60h20v20h-20Z" fill="rgb(254, 215, 210)"/><path d="M200,140h20v20h-20Z" fill="rgb(255, 206, 199)"/><path d="M180,140h20v20h-20Z" fill="rgb(255, 199, 191)"/><path d="M340,120h20v20h-20Z" fill="rgb(255, 212, 207)"/><path d="M0,60h20v20h-20Z" fill="rgb(255, 212, 206)"/><path d="M60,60h20v20h-20Z" fill="rgb(254, 214, 208)"/><path d="M100,200h20v20h-20Z" fill="rgb(254, 214, 208)"/><path d="M160,280h20v20h-20Z" fill="rgb(255, 211, 206)"/><path d="M320,40h20v20h-20Z" fill="rgb(255, 211, 205)"/><path d="M340,80h20v20h-20Z" fill="rgb(255, 163, 148)"/><path d="M260,40h20v20h-20Z" fill="rgb(254, 214, 209)"/><path d="M80,60h20v20h-20Z" fill="rgb(255, 208, 202)"/><path d="M240,40h20v20h-20Z" fill="rgb(255, 200, 192)"/><path d="M240,200h20v20h-20Z" fill="rgb(255, 205, 199)"/><path d="M0,0h20v20h-20Z" fill="rgb(255, 205, 198)"/><path d="M280,120h20v20h-20Z" fill="rgb(255, 209, 203)"/><path d="M140,240h20v20h-20Z" fill="rgb(255, 202, 195)"/><path d="M200,120h20v20h-20Z" fill="rgb(255, 206, 199)"/><path d="M0,260h20v20h-20Z" fill="rgb(255, 212, 206)"/><path d="M60,240h20v20h-20Z" fill="rgb(255, 213, 208)"/><path d="M380,260h20v20h-20Z" fill="rgb(255, 204, 197)"/><path d="M220,260h20v20h-20Z" fill="rgb(255, 212, 206)"/><path d="M120,60h20v20h-20Z" fill="rgb(254, 213, 208)"/><path d="M320,140h20v20h-20Z" fill="rgb(254, 214, 209)"/><path d="M60,280h20v20h-20Z" fill="rgb(254, 213, 208)"/><path d="M200,200h20v20h-20Z" fill="rgb(254, 215, 210)"/><path d="M300,200h20v20h-20Z" fill="rgb(255, 208, 202)"/><path d="M180,260h20v20h-20Z" fill="rgb(255, 209, 202)"/><path d="M320,260h20v20h-20Z" fill="rgb(254, 214, 209)"/><path d="M360,80h20v20h-20Z" fill="rgb(255, 199, 191)"/><path d="M140,80h20v20h-20Z" fill="rgb(255, 200, 192)"/><path d="M260,220h20v20h-20Z" fill="rgb(255, 208, 202)"/><path d="M40,140h20v20h-20Z" fill="rgb(255, 210, 204)"/><path d="M80,180h20v20h-20Z" fill="rgb(255, 211, 205)"/><path d="M140,220h20v20h-20Z" fill="rgb(255, 210, 204)"/><path d="M240,60h20v20h-20Z" fill="rgb(255, 211, 206)"/><path d="M180,60h20v20h-20Z" fill="rgb(255, 205, 198)"/><path d="M180,120h20v20h-20Z" fill="rgb(254, 214, 209)"/><path d="M340,140h20v20h-20Z" fill="rgb(255, 210, 204)"/><path d="M340,220h20v20h-20Z" fill="rgb(255, 213, 208)"/><path d="M280,140h20v20h-20Z" fill="rgb(255, 213, 208)"/><path d="M360,200h20v20h-20Z" fill="rgb(255, 197, 188)"/><path d="M280,260h20v20h-20Z" fill="rgb(254, 215, 210)"/><path d="M60,260h20v20h-20Z" fill="rgb(255, 213, 208)"/><path d="M80,40h20v20h-20Z" fill="rgb(254, 215, 210)"/><path d="M380,200h20v20h-20Z" fill="rgb(254, 215, 210)"/><path d="M240,120h20v20h-20Z" fill="rgb(255, 212, 206)"/><path d="M80,220h20v20h-20Z" fill="rgb(254, 214, 209)"/><path d="M60,220h20v20h-20Z" fill="rgb(254, 214, 208)"/><path d="M160,300h20v20h-20Z" fill="rgb(255, 213, 207)"/><path d="M380,220h20v20h-20Z" fill="rgb(255, 213, 207)"/><path d="M120,120h20v20h-20Z" fill="rgb(254, 214, 209)"/><path d="M280,100h20v20h-20Z" fill="rgb(254, 213, 208)"/><path d="M140,140h20v20h-20Z" fill="rgb(254, 213, 208)"/><path d="M40,60h20v20h-20Z" fill="rgb(255, 213, 208)"/><path d="M80,300h20v20h-20Z" fill="rgb(255, 212, 207)"/><path d="M340,260h20v20h-20Z" fill="rgb(254, 214, 209)"/><path d="M140,40h20v20h-20Z" fill="rgb(254, 213, 208)"/><path d="M100,100h20v20h-20Z" fill="rgb(255, 211, 205)"/><path d="M140,280h20v20h-20Z" fill="rgb(255, 213, 207)"/><path d="M20,120h20v20h-20Z" fill="rgb(255, 213, 207)"/><path d="M180,220h20v20h-20Z" fill="rgb(254, 214, 209)"/><path d="M0,200h20v20h-20Z" fill="rgb(255, 211, 205)"/><path d="M40,160h20v20h-20Z" fill="rgb(255, 211, 205)"/><path d="M280,200h20v20h-20Z" fill="rgb(255, 211, 205)"/><path d="M380,280h20v20h-20Z" fill="rgb(254, 215, 210)"/><path d="M100,280h20v20h-20Z" fill="rgb(254, 214, 209)"/><path d="M60,100h20v20h-20Z" fill="rgb(255, 213, 208)"/><path d="M120,180h20v20h-20Z" fill="rgb(255, 210, 205)"/><path d="M40,260h20v20h-20Z" fill="rgb(254, 215, 210)"/><path d="M0,140h20v20h-20Z" fill="rgb(255, 213, 207)"/><path d="M20,160h20v20h-20Z" fill="rgb(255, 213, 207)"/><path d="M160,120h20v20h-20Z" fill="rgb(254, 214, 209)"/><path d="M240,260h20v20h-20Z" fill="rgb(254, 214, 208)"/><path d="M160,240h20v20h-20Z" fill="rgb(254, 213, 208)"/><path d="M20,220h20v20h-20Z" fill="rgb(254, 214, 209)"/><path d="M220,240h20v20h-20Z" fill="rgb(254, 214, 209)"/><path d="M180,40h20v20h-20Z" fill="rgb(254, 214, 209)"/><path d="M100,220h20v20h-20Z" fill="rgb(254, 214, 209)"/><path d="M160,200h20v20h-20Z" fill="rgb(255, 213, 208)"/><path d="M160,220h20v20h-20Z" fill="rgb(254, 215, 210)"/><path d="M120,260h20v20h-20Z" fill="rgb(254, 215, 210)"/><path d="M340,60h20v20h-20Z" fill="rgb(255, 213, 207)"/><path d="M0,180h20v20h-20Z" fill="rgb(254, 214, 209)"/><path d="M140,260h20v20h-20Z" fill="rgb(254, 214, 209)"/><path d="M220,280h20v20h-20Z" fill="rgb(254, 213, 208)"/><path d="M360,240h20v20h-20Z" fill="rgb(255, 210, 204)"/><path d="M300,100h20v20h-20Z" fill="rgb(254, 214, 209)"/><path d="M180,180h20v20h-20Z" fill="rgb(254, 215, 210)"/><path d="M200,280h20v20h-20Z" fill="rgb(254, 215, 210)"/><path d="M200,40h20v20h-20Z" fill="rgb(254, 215, 210)"/><path d="M200,240h20v20h-20Z" fill="rgb(254, 215, 210)"/><path d="M40,220h20v20h-20Z" fill="rgb(254, 214, 209)"/><path d="M120,280h20v20h-20Z" fill="rgb(254, 215, 210)"/><path d="M0,40h20v20h-20Z" fill="rgb(254, 214, 209)"/><path d="M100,240h20v20h-20Z" fill="rgb(254, 215, 210)"/><path d="M180,300h20v20h-20Z" fill="rgb(254, 215, 210)"/><path d="M120,100h20v20h-20Z" fill="rgb(254, 214, 209)"/><path d="M360,220h20v20h-20Z" fill="rgb(254, 214, 209)"/><path d="M360,300h20v20h-20Z" fill="rgb(254, 215, 210)"/><path d="M100,260h20v20h-20Z" fill="rgb(254, 215, 210)"/><path d="M20,140h20v20h-20Z" fill="rgb(254, 214, 209)"/><path d="M40,180h20v20h-20Z" fill="rgb(254, 215, 210)"/><path d="M240,300h20v20h-20Z" fill="rgb(254, 215, 210)"/><path d="M200,260h20v20h-20Z" fill="rgb(254, 215, 210)"/><path d="M40,40h20v20h-20Z" fill="rgb(254, 214, 209)"/><path d="M380,100h20v20h-20Z" fill="rgb(254, 215, 210)"/><path d="M0,220h20v20h-20Z" fill="rgb(254, 215, 210)"/><path d="M380,300h20v20h-20Z" fill="rgb(254, 215, 210)"/></g><g class="mark-group role-legend" role="graphics-symbol" aria-roledescription="legend" aria-label="Gradient legend titled 'Violent Events' for fill color with values from 0 to 5,000"><g transform="translate(418,0)"><path class="background" aria-hidden="true" d="M0,0h76v216h-76Z" pointer-events="none"/><g><g class="mark-group role-legend-entry"><g transform="translate(0,16)"><path class="background" aria-hidden="true" d="M0,0h0v0h0Z" pointer-events="none"/><g><g class="mark-rect role-legend-gradient" pointer-events="none"><path d="M0,0h16v200h-16Z" fill="url(#gradient_2)" stroke="#ddd" stroke-width="0" opacity="1"/></g><g class="mark-text role-legend-label" pointer-events="none"><text text-anchor="start" transform="translate(18,198)" font-family="sans-serif" font-size="10px" fill="#000" opacity="1">0</text><text text-anchor="start" transform="translate(18,163)" font-family="sans-serif" font-size="10px" fill="#000" opacity="1">1,000</text><text text-anchor="start" transform="translate(18,123)" font-family="sans-serif" font-size="10px" fill="#000" opacity="1">2,000</text><text text-anchor="start" transform="translate(18,83)" font-family="sans-serif" font-size="10px" fill="#000" opacity="1">3,000</text><text text-anchor="start" transform="translate(18,42.99999999999999)" font-family="sans-serif" font-size="10px" fill="#000" opacity="1">4,000</text><text text-anchor="start" transform="translate(18,8)" font-family="sans-serif" font-size="10px" fill="#000" opacity="1">5,000</text></g></g><path class="foreground" aria-hidden="true" d="" pointer-events="none" display="none"/></g></g><g class="mark-text role-legend-title" pointer-events="none"><text text-anchor="start" transform="translate(0,9)" font-family="sans-serif" font-size="11px" font-weight="bold" fill="#000" opacity="1">Violent Events</text></g></g><path class="foreground" aria-hidden="true" d="" pointer-events="none" display="none"/></g></g><g class="mark-group role-title"><g transform="translate(200,-17)"><path class="background" aria-hidden="true" d="M0,0h0v0h0Z" pointer-events="none"/><g><g class="mark-text role-title-text" role="graphics-symbol" aria-roledescription="title" aria-label="Title text 'Violent Events by Sub-Categorization'" pointer-events="none"><text text-anchor="middle" transform="translate(0,10)" font-family="sans-serif" font-size="13px" font-weight="bold" fill="#000" opacity="1">Violent Events by Sub-Categorization</text></g></g><path class="foreground" aria-hidden="true" d="" pointer-events="none" display="none"/></g></g><g class="mark-group role-axis" role="graphics-symbol" aria-roledescription="axis" aria-label="X-axis titled 'Country' for a discrete scale with 20 values: Turkey, Bangladesh, Kenya, Ethiopia, Pakistan, ending with Myanmar"><g transform="translate(0.5,320.5)"><path class="background" aria-hidden="true" d="M0,0h0v0h0Z" pointer-events="none"/><g><g class="mark-rule role-axis-tick" pointer-events="none"><line transform="translate(10,0)" x2="0" y2="5" stroke="#888" stroke-width="1" opacity="1"/><line transform="translate(30,0)" x2="0" y2="5" stroke="#888" stroke-width="1" opacity="1"/><line transform="translate(50,0)" x2="0" y2="5" stroke="#888" stroke-width="1" opacity="1"/><line transform="translate(70,0)" x2="0" y2="5" stroke="#888" stroke-width="1" opacity="1"/><line transform="translate(90,0)" x2="0" y2="5" stroke="#888" stroke-width="1" opacity="1"/><line transform="translate(110,0)" x2="0" y2="5" stroke="#888" stroke-width="1" opacity="1"/><line transform="translate(130,0)" x2="0" y2="5" stroke="#888" stroke-width="1" opacity="1"/><line transform="translate(150,0)" x2="0" y2="5" stroke="#888" stroke-width="1" opacity="1"/><line transform="translate(170,0)" x2="0" y2="5" stroke="#888" stroke-width="1" opacity="1"/><line transform="translate(190,0)" x2="0" y2="5" stroke="#888" stroke-width="1" opacity="1"/><line transform="translate(210,0)" x2="0" y2="5" stroke="#888" stroke-width="1" opacity="1"/><line transform="translate(230,0)" x2="0" y2="5" stroke="#888" stroke-width="1" opacity="1"/><line transform="translate(250,0)" x2="0" y2="5" stroke="#888" stroke-width="1" opacity="1"/><line transform="translate(270,0)" x2="0" y2="5" stroke="#888" stroke-width="1" opacity="1"/><line transform="translate(290,0)" x2="0" y2="5" stroke="#888" stroke-width="1" opacity="1"/><line transform="translate(310,0)" x2="0" y2="5" stroke="#888" stroke-width="1" opacity="1"/><line transform="translate(330,0)" x2="0" y2="5" stroke="#888" stroke-width="1" opacity="1"/><line transform="translate(350,0)" x2="0" y2="5" stroke="#888" stroke-width="1" opacity="1"/><line transform="translate(370,0)" x2="0" y2="5" stroke="#888" stroke-width="1" opacity="1"/><line transform="translate(390,0)" x2="0" y2="5" stroke="#888" stroke-width="1" opacity="1"/></g><g class="mark-text role-axis-label" pointer-events="none"><text text-anchor="end" transform="translate(9.5,7) rotate(270) translate(0,3)" font-family="sans-serif" font-size="10px" fill="#000" opacity="1">Turkey</text><text text-anchor="end" transform="translate(29.5,7) rotate(270) translate(0,3)" font-family="sans-serif" font-size="10px" fill="#000" opacity="1">Bangladesh</text><text text-anchor="end" transform="translate(49.5,7) rotate(270) translate(0,3)" font-family="sans-serif" font-size="10px" fill="#000" opacity="1">Kenya</text><text text-anchor="end" transform="translate(69.5,7) rotate(270) translate(0,3)" font-family="sans-serif" font-size="10px" fill="#000" opacity="1">Ethiopia</text><text text-anchor="end" transform="translate(89.5,7) rotate(270) translate(0,3)" font-family="sans-serif" font-size="10px" fill="#000" opacity="1">Pakistan</text><text text-anchor="end" transform="translate(109.5,7) rotate(270) translate(0,3)" font-family="sans-serif" font-size="10px" fill="#000" opacity="1">Mali</text><text text-anchor="end" transform="translate(129.5,7) rotate(270) translate(0,3)" font-family="sans-serif" font-size="10px" fill="#000" opacity="1">Burkina Faso</text><text text-anchor="end" transform="translate(149.5,7) rotate(270) translate(0,3)" font-family="sans-serif" font-size="10px" fill="#000" opacity="1">Democratic Republic of Congo</text><text text-anchor="end" transform="translate(169.5,7) rotate(270) translate(0,3)" font-family="sans-serif" font-size="10px" fill="#000" opacity="1">Somalia</text><text text-anchor="end" transform="translate(189.5,7) rotate(270) translate(0,3)" font-family="sans-serif" font-size="10px" fill="#000" opacity="1">Colombia</text><text text-anchor="end" transform="translate(209.5,7) rotate(270) translate(0,3)" font-family="sans-serif" font-size="10px" fill="#000" opacity="1">Cameroon</text><text text-anchor="end" transform="translate(229.5,7) rotate(270) translate(0,3)" font-family="sans-serif" font-size="10px" fill="#000" opacity="1">Yemen</text><text text-anchor="end" transform="translate(249.5,7) rotate(270) translate(0,3)" font-family="sans-serif" font-size="10px" fill="#000" opacity="1">Nigeria</text><text text-anchor="end" transform="translate(269.5,7) rotate(270) translate(0,3)" font-family="sans-serif" font-size="10px" fill="#000" opacity="1">India</text><text text-anchor="end" transform="translate(289.5,7) rotate(270) translate(0,3)" font-family="sans-serif" font-size="10px" fill="#000" opacity="1">Sudan</text><text text-anchor="end" transform="translate(309.5,7) rotate(270) translate(0,3)" font-family="sans-serif" font-size="10px" fill="#000" opacity="1">Iraq</text><text text-anchor="end" transform="translate(329.5,7) rotate(270) translate(0,3)" font-family="sans-serif" font-size="10px" fill="#000" opacity="1">Mexico</text><text text-anchor="end" transform="translate(349.5,7) rotate(270) translate(0,3)" font-family="sans-serif" font-size="10px" fill="#000" opacity="1">Brazil</text><text text-anchor="end" transform="translate(369.5,7) rotate(270) translate(0,3)" font-family="sans-serif" font-size="10px" fill="#000" opacity="1">Syria</text><text text-anchor="end" transform="translate(389.5,7) rotate(270) translate(0,3)" font-family="sans-serif" font-size="10px" fill="#000" opacity="1">Myanmar</text></g><g class="mark-rule role-axis-domain" pointer-events="none"><line transform="translate(0,0)" x2="400" y2="0" stroke="#888" stroke-width="1" opacity="1"/></g><g class="mark-text role-axis-title" pointer-events="none"><text text-anchor="middle" transform="translate(200,155.6201171875)" font-family="sans-serif" font-size="11px" font-weight="bold" fill="#000" opacity="1">Country</text></g></g><path class="foreground" aria-hidden="true" d="" pointer-events="none" display="none"/></g></g><g class="mark-group role-axis" role="graphics-symbol" aria-roledescription="axis" aria-label="Y-axis titled 'Sub-Category' for a discrete scale with 16 values: Attack, Armed clash, Air/drone strike, Disrupted weapons use, Looting/property destruction, ending with Suicide bomb"><g transform="translate(0.5,0.5)"><path class="background" aria-hidden="true" d="M0,0h0v0h0Z" pointer-events="none"/><g><g class="mark-rule role-axis-tick" pointer-events="none"><line transform="translate(0,10)" x2="-5" y2="0" stroke="#888" stroke-width="1" opacity="1"/><line transform="translate(0,30)" x2="-5" y2="0" stroke="#888" stroke-width="1" opacity="1"/><line transform="translate(0,50)" x2="-5" y2="0" stroke="#888" stroke-width="1" opacity="1"/><line transform="translate(0,70)" x2="-5" y2="0" stroke="#888" stroke-width="1" opacity="1"/><line transform="translate(0,90)" x2="-5" y2="0" stroke="#888" stroke-width="1" opacity="1"/><line transform="translate(0,110)" x2="-5" y2="0" stroke="#888" stroke-width="1" opacity="1"/><line transform="translate(0,130)" x2="-5" y2="0" stroke="#888" stroke-width="1" opacity="1"/><line transform="translate(0,150)" x2="-5" y2="0" stroke="#888" stroke-width="1" opacity="1"/><line transform="translate(0,170)" x2="-5" y2="0" stroke="#888" stroke-width="1" opacity="1"/><line transform="translate(0,190)" x2="-5" y2="0" stroke="#888" stroke-width="1" opacity="1"/><line transform="translate(0,210)" x2="-5" y2="0" stroke="#888" stroke-width="1" opacity="1"/><line transform="translate(0,230)" x2="-5" y2="0" stroke="#888" stroke-width="1" opacity="1"/><line transform="translate(0,250)" x2="-5" y2="0" stroke="#888" stroke-width="1" opacity="1"/><line transform="translate(0,270)" x2="-5" y2="0" stroke="#888" stroke-width="1" opacity="1"/><line transform="translate(0,290)" x2="-5" y2="0" stroke="#888" stroke-width="1" opacity="1"/><line transform="translate(0,310)" x2="-5" y2="0" stroke="#888" stroke-width="1" opacity="1"/></g><g class="mark-text role-axis-label" pointer-events="none"><text text-anchor="end" transform="translate(-7,12.5)" font-family="sans-serif" font-size="10px" fill="#000" opacity="1">Attack</text><text text-anchor="end" transform="translate(-7,32.5)" font-family="sans-serif" font-size="10px" fill="#000" opacity="1">Armed clash</text><text text-anchor="end" transform="translate(-7,52.5)" font-family="sans-serif" font-size="10px" fill="#000" opacity="1">Air/drone strike</text><text text-anchor="end" transform="translate(-7,72.5)" font-family="sans-serif" font-size="10px" fill="#000" opacity="1">Disrupted weapons use</text><text text-anchor="end" transform="translate(-7,92.5)" font-family="sans-serif" font-size="10px" fill="#000" opacity="1">Looting/property destruction</text><text text-anchor="end" transform="translate(-7,112.5)" font-family="sans-serif" font-size="10px" fill="#000" opacity="1">Mob violence</text><text text-anchor="end" transform="translate(-7,132.5)" font-family="sans-serif" font-size="10px" fill="#000" opacity="1">Arrests</text><text text-anchor="end" transform="translate(-7,152.5)" font-family="sans-serif" font-size="10px" fill="#000" opacity="1">Remote explosive/landmine/IED</text><text text-anchor="end" transform="translate(-7,172.5)" font-family="sans-serif" font-size="10px" fill="#000" opacity="1">Abduction/forced disappearance</text><text text-anchor="end" transform="translate(-7,192.5)" font-family="sans-serif" font-size="10px" fill="#000" opacity="1">Shelling/artillery/missile attack</text><text text-anchor="end" transform="translate(-7,212.5)" font-family="sans-serif" font-size="10px" fill="#000" opacity="1">Violent demonstration</text><text text-anchor="end" transform="translate(-7,232.5)" font-family="sans-serif" font-size="10px" fill="#000" opacity="1">Sexual violence</text><text text-anchor="end" transform="translate(-7,252.5)" font-family="sans-serif" font-size="10px" fill="#000" opacity="1">Non-state actor overtakes territory</text><text text-anchor="end" transform="translate(-7,272.5)" font-family="sans-serif" font-size="10px" fill="#000" opacity="1">Grenade</text><text text-anchor="end" transform="translate(-7,292.5)" font-family="sans-serif" font-size="10px" fill="#000" opacity="1">Government regains territory</text><text text-anchor="end" transform="translate(-7,312.5)" font-family="sans-serif" font-size="10px" fill="#000" opacity="1">Suicide bomb</text></g><g class="mark-rule role-axis-domain" pointer-events="none"><line transform="translate(0,0)" x2="0" y2="320" stroke="#888" stroke-width="1" opacity="1"/></g><g class="mark-text role-axis-title" pointer-events="none"><text text-anchor="middle" transform="translate(-162.1669921875,160) rotate(-90) translate(0,-2)" font-family="sans-serif" font-size="11px" font-weight="bold" fill="#000" opacity="1">Sub-Category</text></g></g><path class="foreground" aria-hidden="true" d="" pointer-events="none" display="none"/></g></g></g><path class="foreground" aria-hidden="true" d="" display="none"/></g></g></g><defs><linearGradient id="gradient_2" x1="0" x2="0" y1="1" y2="0"><stop offset="0" stop-color="rgb(254, 215, 210)"/><stop offset="0.1" stop-color="rgb(255, 148, 131)"/><stop offset="0.2" stop-color="rgb(251, 70, 50)"/><stop offset="0.3" stop-color="rgb(249, 59, 38)"/><stop offset="0.4" stop-color="rgb(247, 46, 24)"/><stop offset="0.5" stop-color="rgb(245, 29, 5)"/><stop offset="0.6" stop-color="rgb(229, 27, 5)"/><stop offset="0.7" stop-color="rgb(212, 25, 4)"/><stop offset="0.8" stop-color="rgb(196, 23, 4)"/><stop offset="0.9" stop-color="rgb(181, 21, 3)"/><stop offset="1" stop-color="rgb(165, 19, 3)"/></linearGradient></defs></svg>