<svg xmlns="http://www.w3.org/2000/svg" xmlns:xlink="http://www.w3.org/1999/xlink" version="1.1" class="marks" width="1064" height="564" viewBox="0 0 1064 564"><rect width="1064" height="564" fill="white"/><g fill="none" stroke-miterlimit="10" transform="translate(58,27)"><g class="mark-group role-frame root" role="graphics-object" aria-roledescription="group mark container"><g transform="translate(0,0)"><path class="background" aria-hidden="true" d="M0.5,0.5h1000v500h-1000Z" stroke="#ddd"/><g><g class="mark-group role-axis" aria-hidden="true"><g transform="translate(0.5,500.5)"><path class="background" aria-hidden="true" d="M0,0h0v0h0Z" pointer-events="none"/><g><g class="mark-rule role-axis-grid" pointer-events="none"><line transform="translate(0,-500)" x2="0" y2="500" stroke="#ddd" stroke-width="1" opacity="1"/><line transform="translate(56,-500)" x2="0" y2="500" stroke="#ddd" stroke-width="1" opacity="1"/><line transform="translate(111,-500)" x2="0" y2="500" stroke="#ddd" stroke-width="1" opacity="1"/><line transform="translate(167,-500)" x2="0" y2="500" stroke="#ddd" stroke-width="1" opacity="1"/><line transform="translate(222,-500)" x2="0" y2="500" stroke="#ddd" stroke-width="1" opacity="1"/><line transform="translate(278,-500)" x2="0" y2="500" stroke="#ddd" stroke-width="1" opacity="1"/><line transform="translate(333,-500)" x2="0" y2="500" stroke="#ddd" stroke-width="1" opacity="1"/><line transform="translate(389,-500)" x2="0" y2="500" stroke="#ddd" stroke-width="1" opacity="1"/><line transform="translate(444,-500)" x2="0" y2="500" stroke="#ddd" stroke-width="1" opacity="1"/><line transform="translate(500,-500)" x2="0" y2="500" stroke="#ddd" stroke-width="1" opacity="1"/><line transform="translate(556,-500)" x2="0" y2="500" stroke="#ddd" stroke-width="1" opacity="1"/><line transform="translate(611,-500)" x2="0" y2="500" stroke="#ddd" stroke-width="1" opacity="1"/><line transform="translate(667,-500)" x2="0" y2="500" stroke="#ddd" stroke-width="1" opacity="1"/><line transform="translate(722,-500)" x2="0" y2="500" stroke="#ddd" stroke-width="1" opacity="1"/><line transform="translate(778,-500)" x2="0" y2="500" stroke="#ddd" stroke-width="1" opacity="1"/><line transform="translate(833,-500)" x2="0" y2="500" stroke="#ddd" stroke-width="1" opacity="1"/><line transform="translate(889,-500)" x2="0" y2="500" stroke="#ddd" stroke-width="1" opacity="1"/><line transform="translate(944,-500)" x2="0" y2="500" stroke="#ddd" stroke-width="1" opacity="1"/><line transform="translate(1000,-500)" x2="0" y2="500" stroke="#ddd" stroke-width="1" opacity="1"/></g></g><path class="foreground" aria-hidden="true" d="" pointer-events="none" display="none"/></g></g><g class="mark-group role-axis" aria-hidden="true"><g transform="translate(0.5,0.5)"><path class="background" aria-hidden="true" d="M0,0h0v0h0Z" pointer-events="none"/><g><g class="mark-rule role-axis-grid" pointer-events="none"><line transform="translate(0,500)" x2="1000" y2="0" stroke="#ddd" stroke-width="1" opacity="1"/><line transform="translate(0,458)" x2="1000" y2="0" stroke="#ddd" stroke-width="1" opacity="1"/><line transform="translate(0,417)" x2="1000" y2="0" stroke="#ddd" stroke-width="1" opacity="1"/><line transform="translate(0,375)" x2="1000" y2="0" stroke="#ddd" stroke-width="1" opacity="1"/><line transform="translate(0,333)" x2="1000" y2="0" stroke="#ddd" stroke-width="1" opacity="1"/><line transform="translate(0,292)" x2="1000" y2="0" stroke="#ddd" stroke-width="1" opacity="1"/><line transform="translate(0,250)" x2="1000" y2="0" stroke="#ddd" stroke-width="1" opacity="1"/><line transform="translate(0,208)" x2="1000" y2="0" stroke="#ddd" stroke-width="1" opacity="1"/><line transform="translate(0,167)" x2="1000" y2="0" stroke="#ddd" stroke-width="1" opacity="1"/><line transform="translate(0,125)" x2="1000" y2="0" stroke="#ddd" stroke-width="1" opacity="1"/><line transform="translate(0,83)" x2="1000" y2="0" stroke="#ddd" stroke-width="1" opacity="1"/><line transform="translate(0,42)" x2="1000" y2="0" stroke="#ddd" stroke-width="1" opacity="1"/><line transform="translate(0,0)" x2="1000" y2="0" stroke="#ddd" stroke-width="1" opacity="1"/></g></g><path class="foreground" aria-hidden="true" d="" pointer-events="none" display="none"/></g></g><g class="mark-group role-axis" role="graphics-symbol" aria-roledescription="axis" aria-label="X-axis titled 'Median Population Impacted by Event' for a linear scale with values from 0 to 180,000"><g transform="translate(0.5,500.5)"><path class="background" aria-hidden="true" d="M0,0h0v0h0Z" pointer-events="none"/><g><g class="mark-rule role-axis-tick" pointer-events="none"><line transform="translate(0,0)" x2="0" y2="5" stroke="#888" stroke-width="1" opacity="1"/><line transform="translate(56,0)" x2="0" y2="5" stroke="#888" stroke-width="1" opacity="1"/><line transform="translate(111,0)" x2="0" y2="5" stroke="#888" stroke-width="1" opacity="1"/><line transform="translate(167,0)" x2="0" y2="5" stroke="#888" stroke-width="1" opacity="1"/><line transform="translate(222,0)" x2="0" y2="5" stroke="#888" stroke-width="1" opacity="1"/><line transform="translate(278,0)" x2="0" y2="5" stroke="#888" stroke-width="1" opacity="1"/><line transform="translate(333,0)" x2="0" y2="5" stroke="#888" stroke-width="1" opacity="1"/><line transform="translate(389,0)" x2="0" y2="5" stroke="#888" stroke-width="1" opacity="1"/><line transform="translate(444,0)" x2="0" y2="5" stroke="#888" stroke-width="1" opacity="1"/><line transform="translate(500,0)" x2="0" y2="5" stroke="#888" stroke-width="1" opacity="1"/><line transform="translate(556,0)" x2="0" y2="5" stroke="#888" stroke-width="1" opacity="1"/><line transform="translate(611,0)" x2="0" y2="5" stroke="#888" stroke-width="1" opacity="1"/><line transform="translate(667,0)" x2="0" y2="5" stroke="#888" stroke-width="1" opacity="1"/><line transform="translate(722,0)" x2="0" y2="5" stroke="#888" stroke-width="1" opacity="1"/><line transform="translate(778,0)" x2="0" y2="5" stroke="#888" stroke-width="1" opacity="1"/><line transform="translate(833,0)" x2="0" y2="5" stroke="#888" stroke-width="1" opacity="1"/><line transform="translate(889,0)" x2="0" y2="5" stroke="#888" stroke-width="1" opacity="1"/><line transform="translate(944,0)" x2="0" y2="5" stroke="#888" stroke-width="1" opacity="1"/><line transform="translate(1000,0)" x2="0" y2="5" stroke="#888" stroke-width="1" opacity="1"/></g><g class="mark-text role-axis-label" pointer-events="none"><text text-anchor="start" transform="translate(0,15)" font-family="sans-serif" font-size="10px" fill="#000" opacity="1">0</text><text text-anchor="middle" transform="translate(55.55555555555555,15)" font-family="sans-serif" font-size="10px" fill="#000" opacity="1">10,000</text><text text-anchor="middle" transform="translate(111.1111111111111,15)" font-family="sans-serif" font-size="10px" fill="#000" opacity="1">20,000</text><text text-anchor="middle" transform="translate(166.66666666666666,15)" font-family="sans-serif" font-size="10px" fill="#000" opacity="1">30,000</text><text text-anchor="middle" transform="translate(222.2222222222222,15)" font-family="sans-serif" font-size="10px" fill="#000" opacity="1">40,000</text><text text-anchor="middle" transform="translate(277.77777777777777,15)" font-family="sans-serif" font-size="10px" fill="#000" opacity="1">50,000</text><text text-anchor="middle" transform="translate(333.3333333333333,15)" font-family="sans-serif" font-size="10px" fill="#000" opacity="1">60,000</text><text text-anchor="middle" transform="translate(388.8888888888889,15)" font-family="sans-serif" font-size="10px" fill="#000" opacity="1">70,000</text><text text-anchor="middle" transform="translate(444.4444444444444,15)" font-family="sans-serif" font-size="10px" fill="#000" opacity="1">80,000</text><text text-anchor="middle" transform="translate(500,15)" font-family="sans-serif" font-size="10px" fill="#000" opacity="1">90,000</text><text text-anchor="middle" transform="translate(555.5555555555555,15)" font-family="sans-serif" font-size="10px" fill="#000" opacity="1">100,000</text><text text-anchor="middle" transform="translate(611.1111111111112,15)" font-family="sans-serif" font-size="10px" fill="#000" opacity="1">110,000</text><text text-anchor="middle" transform="translate(666.6666666666666,15)" font-family="sans-serif" font-size="10px" fill="#000" opacity="1">120,000</text><text text-anchor="middle" transform="translate(722.2222222222222,15)" font-family="sans-serif" font-size="10px" fill="#000" opacity="1">130,000</text><text text-anchor="middle" transform="translate(777.7777777777778,15)" font-family="sans-serif" font-size="10px" fill="#000" opacity="1">140,000</text><text text-anchor="middle" transform="translate(833.3333333333334,15)" font-family="sans-serif" font-size="10px" fill="#000" opacity="1">150,000</text><text text-anchor="middle" transform="translate(888.8888888888888,15)" font-family="sans-serif" font-size="10px" fill="#000" opacity="1">160,000</text><text text-anchor="middle" transform="translate(944.4444444444445,15)" font-family="sans-serif" font-size="10px" fill="#000" opacity="1">170,000</text><text text-anchor="end" transform="translate(1000,15)" font-family="sans-serif" font-size="10px" fill="#000" opacity="1">180,000</text></g><g class="mark-rule role-axis-domain" pointer-events="none"><line transform="translate(0,0)" x2="1000" y2="0" stroke="#888" stroke-width="1" opacity="1"/></g><g class="mark-text role-axis-title" pointer-events="none"><text text-anchor="middle" transform="translate(500,30)" font-family="sans-serif" font-size="11px" font-weight="bold" fill="#000" opacity="1">Median Population Impacted by Event</text></g></g><path class="foreground" aria-hidden="true" d="" pointer-events="none" display="none"/></g></g><g class="mark-group role-axis" role="graphics-symbol" aria-roledescription="axis" aria-label="Y-axis titled 'Violent Events' for a linear scale with values from 0 to 12,000"><g transform="translate(0.5,0.5)"><path class="background" aria-hidden="true" d="M0,0h0v0h0Z" pointer-events="none"/><g><g class="mark-rule role-axis-tick" pointer-events="none"><line transform="translate(0,500)" x2="-5" y2="0" stroke="#888" stroke-width="1" opacity="1"/><line transform="translate(0,458)" x2="-5" y2="0" stroke="#888" stroke-width="1" opacity="1"/><line transform="translate(0,417)" x2="-5" y2="0" stroke="#888" stroke-width="1" opacity="1"/><line transform="translate(0,375)" x2="-5" y2="0" stroke="#888" stroke-width="1" opacity="1"/><line transform="translate(0,333)" x2="-5" y2="0" stroke="#888" stroke-width="1" opacity="1"/><line transform="translate(0,292)" x2="-5" y2="0" stroke="#888" stroke-width="1" opacity="1"/><line transform="translate(0,250)" x2="-5" y2="0" stroke="#888" stroke-width="1" opacity="1"/><line transform="translate(0,208)" x2="-5" y2="0" stroke="#888" stroke-width="1" opacity="1"/><line transform="translate(0,167)" x2="-5" y2="0" stroke="#888" stroke-width="1" opacity="1"/><line transform="translate(0,125)" x2="-5" y2="0" stroke="#888" stroke-width="1" opacity="1"/><line transform="translate(0,83)" x2="-5" y2="0" stroke="#888" stroke-width="1" opacity="1"/><line transform="translate(0,42)" x2="-5" y2="0" stroke="#888" stroke-width="1" opacity="1"/><line transform="translate(0,0)" x2="-5" y2="0" stroke="#888" stroke-width="1" opacity="1"/></g><g class="mark-text role-axis-label" pointer-events="none"><text text-anchor="end" transform="translate(-7,503)" font-family="sans-serif" font-size="10px" fill="#000" opacity="1">0</text><text text-anchor="end" transform="translate(-7,461.3333333333333)" font-family="sans-serif" font-size="10px" fill="#000" opacity="1">1,000</text><text text-anchor="end" transform="translate(-7,419.6666666666667)" font-family="sans-serif" font-size="10px" fill="#000" opacity="1">2,000</text><text text-anchor="end" transform="translate(-7,378)" font-family="sans-serif" font-size="10px" fill="#000" opacity="1">3,000</text><text text-anchor="end" transform="translate(-7,336.33333333333337)" font-family="sans-serif" font-size="10px" fill="#000" opacity="1">4,000</text><text text-anchor="end" transform="translate(-7,294.66666666666663)" font-family="sans-serif" font-size="10px" fill="#000" opacity="1">5,000</text><text text-anchor="end" transform="translate(-7,253)" font-family="sans-serif" font-size="10px" fill="#000" opacity="1">6,000</text><text text-anchor="end" transform="translate(-7,211.33333333333331)" font-family="sans-serif" font-size="10px" fill="#000" opacity="1">7,000</text><text text-anchor="end" transform="translate(-7,169.66666666666669)" font-family="sans-serif" font-size="10px" fill="#000" opacity="1">8,000</text><text text-anchor="end" transform="translate(-7,128)" font-family="sans-serif" font-size="10px" fill="#000" opacity="1">9,000</text><text text-anchor="end" transform="translate(-7,86.33333333333331)" font-family="sans-serif" font-size="10px" fill="#000" opacity="1">10,000</text><text text-anchor="end" transform="translate(-7,44.666666666666686)" font-family="sans-serif" font-size="10px" fill="#000" opacity="1">11,000</text><text text-anchor="end" transform="translate(-7,3)" font-family="sans-serif" font-size="10px" fill="#000" opacity="1">12,000</text></g><g class="mark-rule role-axis-domain" pointer-events="none"><line transform="translate(0,500)" x2="0" y2="-500" stroke="#888" stroke-width="1" opacity="1"/></g><g class="mark-text role-axis-title" pointer-events="none"><text text-anchor="middle" transform="translate(-41.5859375,250) rotate(-90) translate(0,-2)" font-family="sans-serif" font-size="11px" font-weight="bold" fill="#000" opacity="1">Violent Events</text></g></g><path class="foreground" aria-hidden="true" d="" pointer-events="none" display="none"/></g></g><g class="mark-symbol role-mark layer_0_marks" role="graphics-symbol" aria-roledescription="symbol mark container"><path transform="translate(32.550000000000004,357.20833333333337)" d="M2.739,0A2.739,2.739,0,1,1,-2.739,0A2.739,2.739,0,1,1,2.739,0" fill="#A51303" stroke-width="2"/><path transform="translate(30.327777777777776,401.7083333333333)" d="M2.739,0A2.739,2.739,0,1,1,-2.739,0A2.739,2.739,0,1,1,2.739,0" fill="#A51303" stroke-width="2"/><path transform="translate(130.67222222222222,338.87500000000006)" d="M2.739,0A2.739,2.739,0,1,1,-2.739,0A2.739,2.739,0,1,1,2.739,0" fill="#A51303" stroke-width="2"/><path transform="translate(11.922222222222222,418.5)" d="M2.739,0A2.739,2.739,0,1,1,-2.739,0A2.739,2.739,0,1,1,2.739,0" fill="#A51303" stroke-width="2"/><path transform="translate(18.38888888888889,271.37500000000006)" d="M2.739,0A2.739,2.739,0,1,1,-2.739,0A2.739,2.739,0,1,1,2.739,0" fill="#A51303" stroke-width="2"/><path transform="translate(299.5555555555556,184.08333333333331)" d="M2.739,0A2.739,2.739,0,1,1,-2.739,0A2.739,2.739,0,1,1,2.739,0" fill="#A51303" stroke-width="2"/><path transform="translate(931.1972222222222,99.29166666666667)" d="M2.739,0A2.739,2.739,0,1,1,-2.739,0A2.739,2.739,0,1,1,2.739,0" fill="#A51303" stroke-width="2"/><path transform="translate(97.09444444444445,365.2916666666667)" d="M2.739,0A2.739,2.739,0,1,1,-2.739,0A2.739,2.739,0,1,1,2.739,0" fill="#A51303" stroke-width="2"/><path transform="translate(175.68055555555557,448.45833333333337)" d="M2.739,0A2.739,2.739,0,1,1,-2.739,0A2.739,2.739,0,1,1,2.739,0" fill="#A51303" stroke-width="2"/><path transform="translate(118.58333333333333,436.16666666666663)" d="M2.739,0A2.739,2.739,0,1,1,-2.739,0A2.739,2.739,0,1,1,2.739,0" fill="#A51303" stroke-width="2"/><path transform="translate(72,382.16666666666663)" d="M2.739,0A2.739,2.739,0,1,1,-2.739,0A2.739,2.739,0,1,1,2.739,0" fill="#A51303" stroke-width="2"/><path transform="translate(141.21666666666667,293.8333333333333)" d="M2.739,0A2.739,2.739,0,1,1,-2.739,0A2.739,2.739,0,1,1,2.739,0" fill="#A51303" stroke-width="2"/><path transform="translate(21.72222222222222,355.16666666666663)" d="M2.739,0A2.739,2.739,0,1,1,-2.739,0A2.739,2.739,0,1,1,2.739,0" fill="#A51303" stroke-width="2"/><path transform="translate(31.377777777777776,12.333333333333307)" d="M2.739,0A2.739,2.739,0,1,1,-2.739,0A2.739,2.739,0,1,1,2.739,0" fill="#A51303" stroke-width="2"/><path transform="translate(103.85555555555557,299.04166666666663)" d="M2.739,0A2.739,2.739,0,1,1,-2.739,0A2.739,2.739,0,1,1,2.739,0" fill="#A51303" stroke-width="2"/><path transform="translate(233.48055555555555,419.2916666666667)" d="M2.739,0A2.739,2.739,0,1,1,-2.739,0A2.739,2.739,0,1,1,2.739,0" fill="#A51303" stroke-width="2"/><path transform="translate(265.02777777777777,439.75)" d="M2.739,0A2.739,2.739,0,1,1,-2.739,0A2.739,2.739,0,1,1,2.739,0" fill="#A51303" stroke-width="2"/><path transform="translate(21.358333333333334,415.1666666666667)" d="M2.739,0A2.739,2.739,0,1,1,-2.739,0A2.739,2.739,0,1,1,2.739,0" fill="#A51303" stroke-width="2"/><path transform="translate(50.05555555555556,438.5416666666667)" d="M2.739,0A2.739,2.739,0,1,1,-2.739,0A2.739,2.739,0,1,1,2.739,0" fill="#A51303" stroke-width="2"/><path transform="translate(21.81388888888889,50.95833333333333)" d="M2.739,0A2.739,2.739,0,1,1,-2.739,0A2.739,2.739,0,1,1,2.739,0" fill="#A51303" stroke-width="2"/></g><g class="mark-text role-mark layer_1_marks" role="graphics-object" aria-roledescription="text mark container"><text text-anchor="start" transform="translate(39.550000000000004,360.20833333333337)" font-family="sans-serif" font-size="11px" fill="#A51303">Cameroon</text><text text-anchor="start" transform="translate(37.327777777777776,404.7083333333333)" font-family="sans-serif" font-size="11px" fill="#A51303">Democratic Republic of Congo</text><text text-anchor="start" transform="translate(137.67222222222222,341.87500000000006)" font-family="sans-serif" font-size="11px" fill="#A51303">Nigeria</text><text text-anchor="start" transform="translate(18.922222222222224,421.5)" font-family="sans-serif" font-size="11px" fill="#A51303">Mali</text><text text-anchor="start" transform="translate(25.38888888888889,274.37500000000006)" font-family="sans-serif" font-size="11px" fill="#A51303">Iraq</text><text text-anchor="start" transform="translate(306.5555555555556,187.08333333333331)" font-family="sans-serif" font-size="11px" fill="#A51303">Mexico</text><text text-anchor="start" transform="translate(938.1972222222222,102.29166666666667)" font-family="sans-serif" font-size="11px" fill="#A51303">Brazil</text><text text-anchor="start" transform="translate(104.09444444444445,368.2916666666667)" font-family="sans-serif" font-size="11px" fill="#A51303">Colombia</text><text text-anchor="start" transform="translate(182.68055555555557,451.45833333333337)" font-family="sans-serif" font-size="11px" fill="#A51303">Turkey</text><text text-anchor="start" transform="translate(125.58333333333333,439.16666666666663)" font-family="sans-serif" font-size="11px" fill="#A51303">Ethiopia</text><text text-anchor="start" transform="translate(79,385.16666666666663)" font-family="sans-serif" font-size="11px" fill="#A51303">Somalia</text><text text-anchor="start" transform="translate(148.21666666666667,296.8333333333333)" font-family="sans-serif" font-size="11px" fill="#A51303">Sudan</text><text text-anchor="start" transform="translate(28.72222222222222,358.16666666666663)" font-family="sans-serif" font-size="11px" fill="#A51303">Yemen</text><text text-anchor="start" transform="translate(38.37777777777778,15.333333333333307)" font-family="sans-serif" font-size="11px" fill="#A51303">Myanmar</text><text text-anchor="start" transform="translate(110.85555555555557,302.04166666666663)" font-family="sans-serif" font-size="11px" fill="#A51303">India</text><text text-anchor="start" transform="translate(240.48055555555555,422.2916666666667)" font-family="sans-serif" font-size="11px" fill="#A51303">Pakistan</text><text text-anchor="start" transform="translate(272.02777777777777,442.75)" font-family="sans-serif" font-size="11px" fill="#A51303">Bangladesh</text><text text-anchor="start" transform="translate(28.358333333333334,418.1666666666667)" font-family="sans-serif" font-size="11px" fill="#A51303">Burkina Faso</text><text text-anchor="start" transform="translate(57.05555555555556,441.5416666666667)" font-family="sans-serif" font-size="11px" fill="#A51303">Kenya</text><text text-anchor="start" transform="translate(28.81388888888889,53.95833333333333)" font-family="sans-serif" font-size="11px" fill="#A51303">Syria</text></g><g class="mark-group role-title"><g transform="translate(500,-22)"><path class="background" aria-hidden="true" d="M0,0h0v0h0Z" pointer-events="none"/><g><g class="mark-text role-title-text" role="graphics-symbol" aria-roledescription="title" aria-label="Title text 'Violence Frequency and Impact by Country (2023)'" pointer-events="none"><text text-anchor="middle" transform="translate(0,10)" font-family="sans-serif" font-size="13px" font-weight="bold" fill="#000" opacity="1">Violence Frequency and Impact by Country (2023)</text></g></g><path class="foreground" aria-hidden="true" d="" pointer-events="none" display="none"/></g></g></g><path class="foreground" aria-hidden="true" d="" display="none"/></g></g></g></svg>