<svg xmlns="http://www.w3.org/2000/svg" xmlns:xlink="http://www.w3.org/1999/xlink" version="1.1" class="marks" width="1039" height="559" viewBox="0 0 1039 559"><rect width="1039" height="559" fill="white"/><g fill="none" stroke-miterlimit="10" transform="translate(33,22)"><g class="mark-group role-frame root" role="graphics-object" aria-roledescription="group mark container"><g transform="translate(0,0)"><path class="background" aria-hidden="true" d="M0.5,0.5h1000v500h-1000Z" stroke="#ddd"/><g><g class="mark-group role-axis" aria-hidden="true"><g transform="translate(0.5,500.5)"><path class="background" aria-hidden="true" d="M0,0h0v0h0Z" pointer-events="none"/><g><g class="mark-rule role-axis-grid" pointer-events="none"><line transform="translate(0,0)" x2="0" y2="-500" stroke="#ddd" stroke-width="1" opacity="1"/><line transform="translate(45,0)" x2="0" y2="-500" stroke="#ddd" stroke-width="1" opacity="1"/><line transform="translate(91,0)" x2="0" y2="-500" stroke="#ddd" stroke-width="1" opacity="1"/><line transform="translate(136,0)" x2="0" y2="-500" stroke="#ddd" stroke-width="1" opacity="1"/><line transform="translate(182,0)" x2="0" y2="-500" stroke="#ddd" stroke-width="1" opacity="1"/><line transform="translate(227,0)" x2="0" y2="-500" stroke="#ddd" stroke-width="1" opacity="1"/><line transform="translate(273,0)" x2="0" y2="-500" stroke="#ddd" stroke-width="1" opacity="1"/><line transform="translate(318,0)" x2="0" y2="-500" stroke="#ddd" stroke-width="1" opacity="1"/><line transform="translate(364,0)" x2="0" y2="-500" stroke="#ddd" stroke-width="1" opacity="1"/><line transform="translate(409,0)" x2="0" y2="-500" stroke="#ddd" stroke-width="1" opacity="1"/><line transform="translate(455,0)" x2="0" y2="-500" stroke="#ddd" stroke-width="1" opacity="1"/><line transform="translate(500,0)" x2="0" y2="-500" stroke="#ddd" stroke-width="1" opacity="1"/><line transform="translate(545,0)" x2="0" y2="-500" stroke="#ddd" stroke-width="1" opacity="1"/><line transform="translate(591,0)" x2="0" y2="-500" stroke="#ddd" stroke-width="1" opacity="1"/><line transform="translate(636,0)" x2="0" y2="-500" stroke="#ddd" stroke-width="1" opacity="1"/><line transform="translate(682,0)" x2="0" y2="-500" stroke="#ddd" stroke-width="1" opacity="1"/><line transform="translate(727,0)" x2="0" y2="-500" stroke="#ddd" stroke-width="1" opacity="1"/><line transform="translate(773,0)" x2="0" y2="-500" stroke="#ddd" stroke-width="1" opacity="1"/><line transform="translate(818,0)" x2="0" y2="-500" stroke="#ddd" stroke-width="1" opacity="1"/><line transform="translate(864,0)" x2="0" y2="-500" stroke="#ddd" stroke-width="1" opacity="1"/><line transform="translate(909,0)" x2="0" y2="-500" stroke="#ddd" stroke-width="1" opacity="1"/><line transform="translate(955,0)" x2="0" y2="-500" stroke="#ddd" stroke-width="1" opacity="1"/><line transform="translate(1000,0)" x2="0" y2="-500" stroke="#ddd" stroke-width="1" opacity="1"/></g></g><path class="foreground" aria-hidden="true" d="" pointer-events="none" display="none"/></g></g><g class="mark-group role-axis" aria-hidden="true"><g transform="translate(0.5,0.5)"><path class="background" aria-hidden="true" d="M0,0h0v0h0Z" pointer-events="none"/><g><g class="mark-rule role-axis-grid" pointer-events="none"><line transform="translate(0,250)" x2="1000" y2="0" stroke="#ddd" stroke-width="1" opacity="1"/></g></g><path class="foreground" aria-hidden="true" d="" pointer-events="none" display="none"/></g></g><g class="mark-group role-axis" role="graphics-symbol" aria-roledescription="axis" aria-label="X-axis titled 'Potential Civilian Impacts per Person' for a linear scale with values from 0 to 11"><g transform="translate(0.5,500.5)"><path class="background" aria-hidden="true" d="M0,0h0v0h0Z" pointer-events="none"/><g><g class="mark-rule role-axis-tick" pointer-events="none"><line transform="translate(0,0)" x2="0" y2="5" stroke="#888" stroke-width="1" opacity="1"/><line transform="translate(45,0)" x2="0" y2="5" stroke="#888" stroke-width="1" opacity="1"/><line transform="translate(91,0)" x2="0" y2="5" stroke="#888" stroke-width="1" opacity="1"/><line transform="translate(136,0)" x2="0" y2="5" stroke="#888" stroke-width="1" opacity="1"/><line transform="translate(182,0)" x2="0" y2="5" stroke="#888" stroke-width="1" opacity="1"/><line transform="translate(227,0)" x2="0" y2="5" stroke="#888" stroke-width="1" opacity="1"/><line transform="translate(273,0)" x2="0" y2="5" stroke="#888" stroke-width="1" opacity="1"/><line transform="translate(318,0)" x2="0" y2="5" stroke="#888" stroke-width="1" opacity="1"/><line transform="translate(364,0)" x2="0" y2="5" stroke="#888" stroke-width="1" opacity="1"/><line transform="translate(409,0)" x2="0" y2="5" stroke="#888" stroke-width="1" opacity="1"/><line transform="translate(455,0)" x2="0" y2="5" stroke="#888" stroke-width="1" opacity="1"/><line transform="translate(500,0)" x2="0" y2="5" stroke="#888" stroke-width="1" opacity="1"/><line transform="translate(545,0)" x2="0" y2="5" stroke="#888" stroke-width="1" opacity="1"/><line transform="translate(591,0)" x2="0" y2="5" stroke="#888" stroke-width="1" opacity="1"/><line transform="translate(636,0)" x2="0" y2="5" stroke="#888" stroke-width="1" opacity="1"/><line transform="translate(682,0)" x2="0" y2="5" stroke="#888" stroke-width="1" opacity="1"/><line transform="translate(727,0)" x2="0" y2="5" stroke="#888" stroke-width="1" opacity="1"/><line transform="translate(773,0)" x2="0" y2="5" stroke="#888" stroke-width="1" opacity="1"/><line transform="translate(818,0)" x2="0" y2="5" stroke="#888" stroke-width="1" opacity="1"/><line transform="translate(864,0)" x2="0" y2="5" stroke="#888" stroke-width="1" opacity="1"/><line transform="translate(909,0)" x2="0" y2="5" stroke="#888" stroke-width="1" opacity="1"/><line transform="translate(955,0)" x2="0" y2="5" stroke="#888" stroke-width="1" opacity="1"/><line transform="translate(1000,0)" x2="0" y2="5" stroke="#888" stroke-width="1" opacity="1"/></g><g class="mark-text role-axis-label" pointer-events="none"><text text-anchor="start" transform="translate(0,15)" font-family="sans-serif" font-size="10px" fill="#000" opacity="1">0.0</text><text text-anchor="middle" transform="translate(45.45454545454545,15)" font-family="sans-serif" font-size="10px" fill="#000" opacity="1">0.5</text><text text-anchor="middle" transform="translate(90.9090909090909,15)" font-family="sans-serif" font-size="10px" fill="#000" opacity="1">1.0</text><text text-anchor="middle" transform="translate(136.36363636363635,15)" font-family="sans-serif" font-size="10px" fill="#000" opacity="1">1.5</text><text text-anchor="middle" transform="translate(181.8181818181818,15)" font-family="sans-serif" font-size="10px" fill="#000" opacity="1">2.0</text><text text-anchor="middle" transform="translate(227.27272727272725,15)" font-family="sans-serif" font-size="10px" fill="#000" opacity="1">2.5</text><text text-anchor="middle" transform="translate(272.7272727272727,15)" font-family="sans-serif" font-size="10px" fill="#000" opacity="1">3.0</text><text text-anchor="middle" transform="translate(318.1818181818182,15)" font-family="sans-serif" font-size="10px" fill="#000" opacity="1">3.5</text><text text-anchor="middle" transform="translate(363.6363636363636,15)" font-family="sans-serif" font-size="10px" fill="#000" opacity="1">4.0</text><text text-anchor="middle" transform="translate(409.0909090909091,15)" font-family="sans-serif" font-size="10px" fill="#000" opacity="1">4.5</text><text text-anchor="middle" transform="translate(454.5454545454545,15)" font-family="sans-serif" font-size="10px" fill="#000" opacity="1">5.0</text><text text-anchor="middle" transform="translate(500,15)" font-family="sans-serif" font-size="10px" fill="#000" opacity="1">5.5</text><text text-anchor="middle" transform="translate(545.4545454545454,15)" font-family="sans-serif" font-size="10px" fill="#000" opacity="1">6.0</text><text text-anchor="middle" transform="translate(590.909090909091,15)" font-family="sans-serif" font-size="10px" fill="#000" opacity="1">6.5</text><text text-anchor="middle" transform="translate(636.3636363636364,15)" font-family="sans-serif" font-size="10px" fill="#000" opacity="1">7.0</text><text text-anchor="middle" transform="translate(681.8181818181818,15)" font-family="sans-serif" font-size="10px" fill="#000" opacity="1">7.5</text><text text-anchor="middle" transform="translate(727.2727272727273,15)" font-family="sans-serif" font-size="10px" fill="#000" opacity="1">8.0</text><text text-anchor="middle" transform="translate(772.7272727272727,15)" font-family="sans-serif" font-size="10px" fill="#000" opacity="1">8.5</text><text text-anchor="middle" transform="translate(818.1818181818182,15)" font-family="sans-serif" font-size="10px" fill="#000" opacity="1">9.0</text><text text-anchor="middle" transform="translate(863.6363636363636,15)" font-family="sans-serif" font-size="10px" fill="#000" opacity="1">9.5</text><text text-anchor="middle" transform="translate(909.090909090909,15)" font-family="sans-serif" font-size="10px" fill="#000" opacity="1">10.0</text><text text-anchor="middle" transform="translate(954.5454545454546,15)" font-family="sans-serif" font-size="10px" fill="#000" opacity="1">10.5</text><text text-anchor="end" transform="translate(1000,15)" font-family="sans-serif" font-size="10px" fill="#000" opacity="1">11.0</text></g><g class="mark-rule role-axis-domain" pointer-events="none"><line transform="translate(0,0)" x2="1000" y2="0" stroke="#888" stroke-width="1" opacity="1"/></g><g class="mark-text role-axis-title" pointer-events="none"><text text-anchor="middle" transform="translate(500,30)" font-family="sans-serif" font-size="11px" font-weight="bold" fill="#000" opacity="1">Potential Civilian Impacts per Person</text></g></g><path class="foreground" aria-hidden="true" d="" pointer-events="none" display="none"/></g></g><g class="mark-group role-axis" role="graphics-symbol" aria-roledescription="axis" aria-label="Y-axis titled 'Net Migration per 1000 people' for a linear scale with values from 0 to 0"><g transform="translate(0.5,0.5)"><path class="background" aria-hidden="true" d="M0,0h0v0h0Z" pointer-events="none"/><g><g class="mark-rule role-axis-tick" pointer-events="none"><line transform="translate(0,250)" x2="-5" y2="0" stroke="#888" stroke-width="1" opacity="1"/></g><g class="mark-text role-axis-label" pointer-events="none"><text text-anchor="end" transform="translate(-7,253)" font-family="sans-serif" font-size="10px" fill="#000" opacity="1">0</text></g><g class="mark-rule role-axis-domain" pointer-events="none"><line transform="translate(0,0)" x2="0" y2="500" stroke="#888" stroke-width="1" opacity="1"/></g><g class="mark-text role-axis-title" pointer-events="none"><text text-anchor="middle" transform="translate(-16.5615234375,250) rotate(-90) translate(0,-2)" font-family="sans-serif" font-size="11px" font-weight="bold" fill="#000" opacity="1">Net Migration per 1000 people</text></g></g><path class="foreground" aria-hidden="true" d="" pointer-events="none" display="none"/></g></g><g class="mark-symbol role-mark layer_0_marks" role="graphics-symbol" aria-roledescription="symbol mark container"><path transform="translate(60.8351966527406,250)" d="M2.739,0A2.739,2.739,0,1,1,-2.739,0A2.739,2.739,0,1,1,2.739,0" fill="#A51303" stroke-width="2" opacity="0.7"/><path transform="translate(415.4523773040006,250)" d="M2.739,0A2.739,2.739,0,1,1,-2.739,0A2.739,2.739,0,1,1,2.739,0" fill="#A51303" stroke-width="2" opacity="0.7"/><path transform="translate(353.9460716512106,250)" d="M2.739,0A2.739,2.739,0,1,1,-2.739,0A2.739,2.739,0,1,1,2.739,0" fill="#A51303" stroke-width="2" opacity="0.7"/><path transform="translate(23.21357805345269,250)" d="M2.739,0A2.739,2.739,0,1,1,-2.739,0A2.739,2.739,0,1,1,2.739,0" fill="#A51303" stroke-width="2" opacity="0.7"/><path transform="translate(46.04175887049238,250)" d="M2.739,0A2.739,2.739,0,1,1,-2.739,0A2.739,2.739,0,1,1,2.739,0" fill="#A51303" stroke-width="2" opacity="0.7"/><path transform="translate(375.1088170995793,250)" d="M2.739,0A2.739,2.739,0,1,1,-2.739,0A2.739,2.739,0,1,1,2.739,0" fill="#A51303" stroke-width="2" opacity="0.7"/><path transform="translate(196.40395323298597,250)" d="M2.739,0A2.739,2.739,0,1,1,-2.739,0A2.739,2.739,0,1,1,2.739,0" fill="#A51303" stroke-width="2" opacity="0.7"/><path transform="translate(41.716777385366456,250)" d="M2.739,0A2.739,2.739,0,1,1,-2.739,0A2.739,2.739,0,1,1,2.739,0" fill="#A51303" stroke-width="2" opacity="0.7"/><path transform="translate(34.94901668272669,250)" d="M2.739,0A2.739,2.739,0,1,1,-2.739,0A2.739,2.739,0,1,1,2.739,0" fill="#A51303" stroke-width="2" opacity="0.7"/><path transform="translate(389.9182748159749,250)" d="M2.739,0A2.739,2.739,0,1,1,-2.739,0A2.739,2.739,0,1,1,2.739,0" fill="#A51303" stroke-width="2" opacity="0.7"/><path transform="translate(54.87201934577925,250)" d="M2.739,0A2.739,2.739,0,1,1,-2.739,0A2.739,2.739,0,1,1,2.739,0" fill="#A51303" stroke-width="2" opacity="0.7"/><path transform="translate(49.21094332962404,250)" d="M2.739,0A2.739,2.739,0,1,1,-2.739,0A2.739,2.739,0,1,1,2.739,0" fill="#A51303" stroke-width="2" opacity="0.7"/><path transform="translate(13.51739974474797,250)" d="M2.739,0A2.739,2.739,0,1,1,-2.739,0A2.739,2.739,0,1,1,2.739,0" fill="#A51303" stroke-width="2" opacity="0.7"/><path transform="translate(949.8969899369858,250)" d="M2.739,0A2.739,2.739,0,1,1,-2.739,0A2.739,2.739,0,1,1,2.739,0" fill="#A51303" stroke-width="2" opacity="0.7"/><path transform="translate(65.88445998816704,250)" d="M2.739,0A2.739,2.739,0,1,1,-2.739,0A2.739,2.739,0,1,1,2.739,0" fill="#A51303" stroke-width="2" opacity="0.7"/><path transform="translate(349.84012083113845,250)" d="M2.739,0A2.739,2.739,0,1,1,-2.739,0A2.739,2.739,0,1,1,2.739,0" fill="#A51303" stroke-width="2" opacity="0.7"/><path transform="translate(361.46319795719575,250)" d="M2.739,0A2.739,2.739,0,1,1,-2.739,0A2.739,2.739,0,1,1,2.739,0" fill="#A51303" stroke-width="2" opacity="0.7"/><path transform="translate(276.06129081638,250)" d="M2.739,0A2.739,2.739,0,1,1,-2.739,0A2.739,2.739,0,1,1,2.739,0" fill="#A51303" stroke-width="2" opacity="0.7"/><path transform="translate(56.18228720012135,250)" d="M2.739,0A2.739,2.739,0,1,1,-2.739,0A2.739,2.739,0,1,1,2.739,0" fill="#A51303" stroke-width="2" opacity="0.7"/></g><g class="mark-text role-mark layer_1_marks" role="graphics-object" aria-roledescription="text mark container"><text text-anchor="start" transform="translate(67.83519665274059,253)" font-family="sans-serif" font-size="11px" fill="#A51303">Bangladesh</text><text text-anchor="start" transform="translate(422.4523773040006,253)" font-family="sans-serif" font-size="11px" fill="#A51303">Mexico</text><text text-anchor="start" transform="translate(360.9460716512106,253)" font-family="sans-serif" font-size="11px" fill="#A51303">Sudan</text><text text-anchor="start" transform="translate(30.21357805345269,253)" font-family="sans-serif" font-size="11px" fill="#A51303">Turkey</text><text text-anchor="start" transform="translate(53.04175887049238,253)" font-family="sans-serif" font-size="11px" fill="#A51303">Kenya</text><text text-anchor="start" transform="translate(382.1088170995793,253)" font-family="sans-serif" font-size="11px" fill="#A51303">Syria</text><text text-anchor="start" transform="translate(203.40395323298597,253)" font-family="sans-serif" font-size="11px" fill="#A51303">Cameroon</text><text text-anchor="start" transform="translate(48.716777385366456,253)" font-family="sans-serif" font-size="11px" fill="#A51303">Yemen</text><text text-anchor="start" transform="translate(41.94901668272669,253)" font-family="sans-serif" font-size="11px" fill="#A51303">Ethiopia</text><text text-anchor="start" transform="translate(396.9182748159749,253)" font-family="sans-serif" font-size="11px" fill="#A51303">Somalia</text><text text-anchor="start" transform="translate(61.87201934577925,253)" font-family="sans-serif" font-size="11px" fill="#A51303">Nigeria</text><text text-anchor="start" transform="translate(56.21094332962404,253)" font-family="sans-serif" font-size="11px" fill="#A51303">Burkina Faso</text><text text-anchor="start" transform="translate(20.51739974474797,253)" font-family="sans-serif" font-size="11px" fill="#A51303">India</text><text text-anchor="start" transform="translate(956.8969899369858,253)" font-family="sans-serif" font-size="11px" fill="#A51303">Brazil</text><text text-anchor="start" transform="translate(72.88445998816704,253)" font-family="sans-serif" font-size="11px" fill="#A51303">Pakistan</text><text text-anchor="start" transform="translate(356.84012083113845,253)" font-family="sans-serif" font-size="11px" fill="#A51303">Iraq</text><text text-anchor="start" transform="translate(368.46319795719575,253)" font-family="sans-serif" font-size="11px" fill="#A51303">Myanmar</text><text text-anchor="start" transform="translate(283.06129081638,253)" font-family="sans-serif" font-size="11px" fill="#A51303">Colombia</text><text text-anchor="start" transform="translate(63.18228720012135,253)" font-family="sans-serif" font-size="11px" fill="#A51303">Mali</text></g><g class="mark-group role-title"><g transform="translate(500,-17)"><path class="background" aria-hidden="true" d="M0,0h0v0h0Z" pointer-events="none"/><g><g class="mark-text role-title-text" role="graphics-symbol" aria-roledescription="title" aria-label="Title text 'Net Migration and Civilians Impacted by Country (2023)'" pointer-events="none"><text text-anchor="middle" transform="translate(0,10)" font-family="sans-serif" font-size="13px" font-weight="bold" fill="#000" opacity="1">Net Migration and Civilians Impacted by Country (2023)</text></g></g><path class="foreground" aria-hidden="true" d="" pointer-events="none" display="none"/></g></g></g><path class="foreground" aria-hidden="true" d="" display="none"/></g></g></g></svg>